<?xml version="1.0" standalone="no"?>
<!DOCTYPE svg PUBLIC "-//W3C//DTD SVG 1.1//EN" "http://www.w3.org/Graphics/SVG/1.1/DTD/svg11.dtd" >
<svg xmlns="http://www.w3.org/2000/svg">
<metadata>Generated by IcoMoon</metadata>
<defs>
<font id="icomoon" horiz-adv-x="1024">
<font-face units-per-em="1024" ascent="960" descent="-64" />
<missing-glyph horiz-adv-x="1024" />
<glyph unicode="&#x20;" horiz-adv-x="512" d="" />
<glyph unicode="&#xe900;" glyph-name="blog" d="M109.715 886.857c-60.16 0-109.714-49.554-109.714-109.714v-609.523c0-87.087 71.388-158.476 158.476-158.476h707.047c87.087 0 158.476 71.388 158.476 158.476v365.714c0 60.16-49.554 109.714-109.714 109.714h-36.571v134.095c0 60.16-49.554 109.714-109.714 109.714h-658.285zM109.715 813.714h658.285c20.639 0 36.571-15.933 36.571-36.571v-164.666c-0.307-1.782-0.483-3.835-0.483-5.928s0.176-4.146 0.514-6.144l-0.030 0.215v-408.619c-0.002-0.154-0.003-0.335-0.003-0.518 0-20.2 16.375-36.575 36.575-36.575s36.575 16.375 36.575 36.575c0 0.182-0.001 0.363-0.003 0.545v-0.027 377.905h36.571c20.639 0 36.571-15.933 36.571-36.571v-365.714c0-47.544-37.789-85.334-85.334-85.334h-707.047c-47.544 0-85.334 37.789-85.334 85.334v609.523c0 20.639 15.933 36.571 36.571 36.571zM182.858 667.428c-0.154 0.002-0.335 0.003-0.518 0.003-20.2 0-36.575-16.375-36.575-36.575s16.375-36.575 36.575-36.575c0.182 0 0.363 0.001 0.545 0.003h511.972c0.154-0.002 0.335-0.003 0.518-0.003 20.2 0 36.575 16.375 36.575 36.575s-16.375 36.575-36.575 36.575c-0.182 0-0.363-0.001-0.545-0.003h-511.972zM182.858 472.381c-20.197-0.002-36.569-16.375-36.571-36.571v0-170.666c0.002-20.197 16.375-36.569 36.571-36.571h170.667c20.197 0.002 36.569 16.375 36.571 36.571v0 170.666c-0.002 20.197-16.375 36.569-36.571 36.571h-170.667zM499.809 472.381c-0.154 0.002-0.335 0.003-0.518 0.003-20.2 0-36.575-16.375-36.575-36.575s16.375-36.575 36.575-36.575c0.182 0 0.363 0.001 0.545 0.003h195.020c0.154-0.002 0.335-0.003 0.518-0.003 20.2 0 36.575 16.375 36.575 36.575s-16.375 36.575-36.575 36.575c-0.182 0-0.363-0.001-0.545-0.003h-195.020zM219.429 399.238h97.523v-97.523h-97.523v97.523zM499.809 301.714c-0.154 0.002-0.335 0.003-0.518 0.003-20.2 0-36.575-16.375-36.575-36.575s16.375-36.575 36.575-36.575c0.182 0 0.363 0.001 0.545 0.003h195.020c0.154-0.002 0.335-0.003 0.518-0.003 20.2 0 36.575 16.375 36.575 36.575s-16.375 36.575-36.575 36.575c-0.182 0-0.363-0.001-0.545-0.003h-195.020z" />
<glyph unicode="&#xe901;" glyph-name="home" d="M510.833 943c-8-0.333-15.5-3.167-21.833-8l-351.667-277.167c-44.667-35.167-70.833-88.833-70.833-145.667v-472.5c0-33.667 28.167-61.833 62-61.833h247.333c33.833 0 62 28.167 62 61.833v247.5c0 7.333 5 12.333 12.333 12.333h123.667c7.333 0 12.333-5 12.333-12.333v-247.5c0-33.667 28.167-61.833 62-61.833h247.333c33.833 0 62 28.167 62 61.833v472.5c0 56.833-26.167 110.5-70.833 145.667l-351.667 277.167c-6.833 5.333-15.5 8.167-24.167 8zM512 858.5l328.833-259c26.833-21.167 42.333-53.333 42.333-87.333v-460.167h-222.667v235.167c0 47.333-39.167 86.667-86.667 86.667h-123.667c-47.5 0-86.667-39.333-86.667-86.667v-235.167h-222.667v460.167c0 34 15.5 66.167 42.333 87.333z" />
<glyph unicode="&#xe902;" glyph-name="projects" d="M422.4 985.6c-58.793 0-107.374-45.226-113.9-102.4h-90.9c-63.168 0-115.2-52.032-115.2-115.2v-691.2c0-63.168 52.032-115.2 115.2-115.2h588.801c63.168 0 115.2 52.032 115.2 115.2v691.2c0 63.168-52.032 115.2-115.2 115.2h-90.9c-6.526 57.174-55.108 102.4-113.9 102.4h-179.2zM422.4 908.8h179.2c21.671 0 38.4-16.729 38.4-38.4s-16.729-38.4-38.4-38.4h-179.2c-21.671 0-38.4 16.729-38.4 38.4s16.729 38.4 38.4 38.4zM217.6 806.401h109.3c20.779-30.769 55.94-51.2 95.5-51.2h179.2c39.559 0 74.72 20.431 95.5 51.2h109.3c21.671 0 38.4-16.729 38.4-38.4v-691.2c0-21.671-16.729-38.4-38.4-38.4h-588.801c-21.671 0-38.4 16.729-38.4 38.4v691.2c0 21.671 16.729 38.4 38.4 38.4zM629.8 626.95c-28.888 0-57.731-10.88-79.55-32.7l-224.050-224.050c-4.864-4.853-8.432-11.003-10.145-17.886l-0.055-0.264-33.35-138.25c-0.683-2.71-1.074-5.819-1.074-9.020 0-21.21 17.194-38.404 38.404-38.404 3.202 0 6.312 0.391 9.284 1.13l-0.264-0.055 138.25 33.4c7.144 1.753 13.292 5.305 18.151 10.151l223.999 224.048c0.007 0 0.017 0 0.025 0s0.018 0 0.026 0h-0.001c43.619 43.657 43.59 115.561-0.050 159.2-21.82 21.82-50.712 32.7-79.6 32.7zM629.8 550.65c9.077 0 18.166-3.565 25.3-10.7 14.269-14.269 14.288-36.349 0-50.65l-216.35-216.35-66.65-16.050 16.050 66.65 216.4 216.4c7.134 7.134 16.172 10.7 25.25 10.7z" />
<glyph unicode="&#xe903;" glyph-name="admin" d="M513.077 932.966c-0.307 0.011-0.668 0.017-1.031 0.017-8.525 0-16.296-3.226-22.161-8.525l0.030 0.027c0 0-165.504-145.826-363.681-145.826-18.26-0.002-33.064-14.805-33.067-33.067v0-270.253c0-147.211 68.103-389.442 406.005-531.766 3.787-1.639 8.198-2.59 12.83-2.59s9.042 0.953 13.046 2.672l-0.216-0.083c337.901 142.324 406.005 384.555 406.005 531.766v270.253c-0.002 18.26-14.805 33.064-33.067 33.067v0c-198.179 0-363.681 145.826-363.681 145.826-5.563 5.028-12.891 8.198-20.953 8.48l-0.057 0.002zM512 857.406c45.477-36.562 178.804-130.267 352.702-142.124v-239.943c0-126.581-48.64-330.79-352.702-464.387-304.062 133.596-352.702 337.805-352.702 464.387v239.943c173.898 11.856 307.227 105.56 352.702 142.124zM512 712.526c-41.332 0-76.519-16.69-99.111-42.108s-33.151-58.008-33.151-90.156c0-32.147 10.56-64.739 33.151-90.156s57.779-42.108 99.111-42.108c41.332 0 76.519 16.69 99.111 42.108s33.151 58.008 33.151 90.156c0 32.147-10.56 64.739-33.151 90.156s-57.779 42.108-99.111 42.108zM512 646.395c24.799 0 39.213-8.109 49.685-19.891s16.448-28.79 16.448-46.24c0-17.453-5.974-34.458-16.448-46.24s-24.886-19.891-49.685-19.891c-24.799 0-39.213 8.109-49.685 19.891s-16.448 28.79-16.448 46.24c0 17.453 5.974 34.458 16.448 46.24s24.886 19.891 49.685 19.891zM390.759 403.912c-42.284 0-77.155-34.87-77.155-77.155v-22.043c0-10.088 1.188-19.725 3.359-28.718 1.531-6.195 4.636-11.52 8.867-15.713l0.002-0.002c47.771-47.267 113.727-76.809 186.168-76.809s138.399 29.543 186.168 76.809c4.234 4.193 7.338 9.52 8.822 15.487l0.047 0.227c2.171 8.993 3.359 18.63 3.359 28.718v22.043c0 42.284-34.87 77.155-77.155 77.155h-242.483zM390.759 337.781h242.483c6.213 0 11.022-4.809 11.022-11.022v-22.043c0-0.961-0.259-1.655-0.301-2.583-35.274-31.846-80.77-52.527-131.963-52.527s-96.689 20.679-131.963 52.527c-0.043 0.928-0.301 1.623-0.301 2.583v22.043c0 6.213 4.809 11.022 11.022 11.022z" />
<glyph unicode="&#xe904;" glyph-name="video" d="M134.094 862.477c-73.625 0-134.095-60.47-134.095-134.095v-560.763c0-73.625 60.47-134.095 134.095-134.095h755.81c73.625 0 134.095 60.47 134.095 134.095v560.763c0 73.625-60.47 134.095-134.095 134.095h-755.81zM134.094 789.334h755.81c34.090 0 60.952-26.864 60.952-60.952v-560.763c0-34.090-26.864-60.952-60.952-60.952h-755.81c-34.090 0-60.952 26.864-60.952 60.952v560.763c0 34.090 26.864 60.952 60.952 60.952zM134.094 740.572c-13.458 0-24.381-10.922-24.381-24.381v-24.381c0-13.458 10.922-24.381 24.381-24.381h24.381c13.458 0 24.381 10.922 24.381 24.381v24.381c0 13.458-10.922 24.381-24.381 24.381h-24.381zM280.38 740.572c-13.458 0-24.381-10.922-24.381-24.381v-24.381c0-13.458 10.922-24.381 24.381-24.381h24.381c13.458 0 24.381 10.922 24.381 24.381v24.381c0 13.458-10.922 24.381-24.381 24.381h-24.381zM426.666 740.572c-13.458 0-24.381-10.922-24.381-24.381v-24.381c0-13.458 10.922-24.381 24.381-24.381h24.381c13.458 0 24.381 10.922 24.381 24.381v24.381c0 13.458-10.922 24.381-24.381 24.381h-24.381zM572.952 740.572c-13.458 0-24.381-10.922-24.381-24.381v-24.381c0-13.458 10.922-24.381 24.381-24.381h24.381c13.458 0 24.381 10.922 24.381 24.381v24.381c0 13.458-10.922 24.381-24.381 24.381h-24.381zM719.238 740.572c-13.458 0-24.381-10.922-24.381-24.381v-24.381c0-13.458 10.922-24.381 24.381-24.381h24.381c13.458 0 24.381 10.922 24.381 24.381v24.381c0 13.458-10.922 24.381-24.381 24.381h-24.381zM865.524 740.572c-13.458 0-24.381-10.922-24.381-24.381v-24.381c0-13.458 10.922-24.381 24.381-24.381h24.381c13.458 0 24.381 10.922 24.381 24.381v24.381c0 13.458-10.922 24.381-24.381 24.381h-24.381zM432.476 594.286c-7.338-0.046-14.656-1.994-21.191-5.809-13.117-7.631-21.191-21.667-21.191-36.857v-207.238c0-15.19 8.073-29.226 21.191-36.857 6.632-3.853 14.040-5.809 21.477-5.809 7.265 0 14.49 1.841 21 5.571l182.857 103.62c13.385 7.558 21.666 21.735 21.666 37.095s-8.281 29.537-21.666 37.095l-182.857 103.62c-6.607 3.754-13.947 5.617-21.286 5.571zM134.094 228.571c-13.458 0-24.381-10.922-24.381-24.381v-24.381c0-13.458 10.922-24.381 24.381-24.381h24.381c13.458 0 24.381 10.922 24.381 24.381v24.381c0 13.458-10.922 24.381-24.381 24.381h-24.381zM280.38 228.571c-13.458 0-24.381-10.922-24.381-24.381v-24.381c0-13.458 10.922-24.381 24.381-24.381h24.381c13.458 0 24.381 10.922 24.381 24.381v24.381c0 13.458-10.922 24.381-24.381 24.381h-24.381zM426.666 228.571c-13.458 0-24.381-10.922-24.381-24.381v-24.381c0-13.458 10.922-24.381 24.381-24.381h24.381c13.458 0 24.381 10.922 24.381 24.381v24.381c0 13.458-10.922 24.381-24.381 24.381h-24.381zM572.952 228.571c-13.458 0-24.381-10.922-24.381-24.381v-24.381c0-13.458 10.922-24.381 24.381-24.381h24.381c13.458 0 24.381 10.922 24.381 24.381v24.381c0 13.458-10.922 24.381-24.381 24.381h-24.381zM719.238 228.571c-13.458 0-24.381-10.922-24.381-24.381v-24.381c0-13.458 10.922-24.381 24.381-24.381h24.381c13.458 0 24.381 10.922 24.381 24.381v24.381c0 13.458-10.922 24.381-24.381 24.381h-24.381zM865.524 228.571c-13.458 0-24.381-10.922-24.381-24.381v-24.381c0-13.458 10.922-24.381 24.381-24.381h24.381c13.458 0 24.381 10.922 24.381 24.381v24.381c0 13.458-10.922 24.381-24.381 24.381h-24.381z" />
<glyph unicode="&#xe905;" glyph-name="podcasts" d="M512 946.070c-248.458 0-450.635-202.178-450.635-450.635 0-146.891 70.545-277.826 179.596-360.026 13.221-9.955 27.001-19.215 41.274-27.702 5.351-3.393 11.868-5.406 18.856-5.406 19.65 0 35.58 15.929 35.58 35.58 0 13.214-7.203 24.745-17.897 30.883l-0.173 0.092c-12.054 7.167-23.675 14.991-34.835 23.394-91.885 69.261-151.246 179.034-151.246 303.187 0 210.005 169.479 379.481 379.481 379.481s379.481-169.479 379.481-379.481c0-124.981-60.147-235.425-153.099-304.624v0.046c-11.373-8.465-23.278-16.353-35.576-23.532-10.95-6.207-18.219-17.783-18.219-31.056 0-19.65 15.929-35.58 35.58-35.58 6.856 0 13.26 1.939 18.692 5.3l-0.153-0.088c14.597 8.521 28.673 17.806 42.155 27.841 110.309 82.12 181.774 213.828 181.774 361.694 0 248.458-202.178 450.635-450.635 450.635zM512 803.765c-169.86 0-308.329-138.47-308.329-308.329 0-84.939 34.529-162.29 90.284-218.045 6.485-6.747 15.586-10.938 25.667-10.938 19.65 0 35.58 15.929 35.58 35.58 0 10.079-4.191 19.181-10.927 25.655l-0.012 0.011c-42.957 42.957-69.439 102.021-69.439 167.737 0 131.401 105.774 237.176 237.176 237.176s237.176-105.774 237.176-237.176c0-65.716-26.481-124.78-69.439-167.737-6.747-6.485-10.938-15.586-10.938-25.667 0-19.65 15.929-35.58 35.58-35.58 10.079 0 19.181 4.191 25.655 10.927l0.011 0.012c55.755 55.755 90.284 133.106 90.284 218.045 0 169.86-138.47 308.329-308.329 308.329zM512 614.023c-36.565 0-68.494-14.993-88.849-37.893s-29.74-52.037-29.74-80.695c0-28.659 9.384-57.797 29.74-80.695s52.284-37.893 88.849-37.893c36.565 0 68.494 14.993 88.849 37.893s29.74 52.037 29.74 80.695c0 28.659-9.384 57.797-29.74 80.695s-52.284 37.893-88.849 37.893zM512 542.87c18.777 0 28.355-5.76 35.669-13.989s11.766-20.599 11.766-33.445c0-12.847-4.451-25.216-11.766-33.445s-16.892-13.989-35.669-13.989c-18.777 0-28.355 5.76-35.669 13.989s-11.766 20.599-11.766 33.445c0 12.847 4.451 25.216 11.766 33.445s16.892 13.989 35.669 13.989zM512 329.411c-65.809 0-118.589-55.651-118.589-121.785 0-5.54 0.919-10.804 1.621-16.12-0.026-0.499-0.039-1.084-0.039-1.672 0-2.991 0.369-5.895 1.064-8.671l-0.052 0.246 46.555-186.869c1.925-7.494 6.022-13.847 11.574-18.532l0.053-0.043c12.355-21.139 31.664-37.893 57.811-37.893s45.456 16.743 57.811 37.893c0.233 0.109 0.264 0.124 0.293 0.14l-0.201-0.094c5.561 4.727 9.625 11.062 11.481 18.283l0.053 0.247 46.555 186.915c0.641 2.526 1.008 5.426 1.008 8.411 0 0.56-0.014 1.118-0.039 1.673l0.003-0.079c0.707 5.331 1.621 10.612 1.621 16.167 0 66.118-52.766 121.785-118.589 121.785zM512 258.259c25.87 0 47.436-21.548 47.436-50.632 0-3.597-0.375-7.12-1.065-10.561-0.062-0.32-0.144-0.857-0.214-1.398l-0.019-0.177-39.004-156.759h27.748c-0.002 0-0.003 0-0.006 0-17.157 0-31.477-12.144-34.836-28.305l-0.040-0.231c-3.417 16.368-17.726 28.489-34.866 28.489-0.006 0-0.011 0-0.017 0h27.749l-39.004 156.712c-0.086 0.729-0.168 1.283-0.261 1.832l0.030-0.212c-0.698 3.494-1.065 7.012-1.065 10.609 0 29.116 21.553 50.632 47.436 50.632z" />
<glyph unicode="&#xe906;" glyph-name="speaking" d="M512 932.746c-109.128 0-198.307-89.178-198.307-198.307v-330.509c0-109.128 89.178-198.307 198.307-198.307s198.307 89.178 198.307 198.307v330.509c0 109.128-89.178 198.307-198.307 198.307zM512 866.646c73.401 0 132.205-58.804 132.205-132.205v-330.509c0-73.401-58.804-132.205-132.205-132.205s-132.205 58.804-132.205 132.205v330.509c0 73.401 58.804 132.205 132.205 132.205zM214.025 514.575c-18.032-0.29-32.537-14.975-32.537-33.050 0-0.166 0.001-0.334 0.004-0.499v0.026-77.119c0-170.995 130.75-312.18 297.458-328.831v-100.832c-0.002-0.14-0.003-0.302-0.003-0.467 0-18.256 14.798-33.054 33.054-33.054s33.054 14.798 33.054 33.054c0 0.164-0.001 0.329-0.003 0.493v-0.026 100.832c166.708 16.651 297.458 157.835 297.458 328.831v77.119c0.002 0.14 0.003 0.302 0.003 0.467 0 18.256-14.798 33.054-33.054 33.054s-33.054-14.798-33.054-33.054c0-0.164 0.001-0.329 0.003-0.493v0.026-77.119c0-145.103-115.907-262.088-260.492-264.193-1.242 0.165-2.677 0.26-4.134 0.26-0.105 0-0.21 0-0.315-0.001h0.017c-1.298-0.022-2.551-0.114-3.781-0.277l0.166 0.018c-144.485 2.217-260.276 119.163-260.276 264.193v77.119c0.002 0.142 0.003 0.308 0.003 0.473 0 18.256-14.798 33.054-33.054 33.054-0.182 0-0.362-0.001-0.544-0.004h0.028z" />
<glyph unicode="&#xe907;" glyph-name="contacts" d="M115.199 857.6c-63.168 0-115.2-52.032-115.2-115.2v-588.801c0-63.168 52.032-115.2 115.2-115.2h793.6c63.168 0 115.2 52.032 115.2 115.2v588.801c0 63.168-52.032 115.2-115.2 115.2h-793.6zM115.199 780.8h793.6c21.671 0 38.4-16.729 38.4-38.4v-588.801c0-21.671-16.729-38.4-38.4-38.4h-793.6c-21.671 0-38.4 16.729-38.4 38.4v588.801c0 21.671 16.729 38.4 38.4 38.4zM307.2 627.2c-42.415 0-76.8-34.385-76.8-76.8s34.385-76.8 76.8-76.8v0c42.415 0 76.8 34.385 76.8 76.8s-34.385 76.8-76.8 76.8v0zM576 576c-0.162 0.002-0.352 0.004-0.544 0.004-21.21 0-38.404-17.194-38.404-38.404s17.194-38.404 38.404-38.404c0.191 0 0.382 0.001 0.572 0.004h230.371c0.162-0.002 0.352-0.004 0.544-0.004 21.21 0 38.404 17.194 38.404 38.404s-17.194 38.404-38.404 38.404c-0.191 0-0.382-0.001-0.572-0.004h-230.371zM217.6 422.4c-21.197 0-38.4-17.203-38.4-38.4 0-38.4 0.010-115.2 125.45-115.2h5.1c125.44 0 125.45 76.8 125.45 115.2 0 21.197-17.203 38.4-38.4 38.4h-179.2zM576 396.8c-0.162 0.002-0.352 0.004-0.544 0.004-21.21 0-38.404-17.194-38.404-38.404s17.194-38.404 38.404-38.404c0.191 0 0.382 0.001 0.572 0.004h230.371c0.162-0.002 0.352-0.004 0.544-0.004 21.21 0 38.404 17.194 38.404 38.404s-17.194 38.404-38.404 38.404c-0.191 0-0.382-0.001-0.572-0.004h-230.371z" />
<glyph unicode="&#xe908;" glyph-name="theme" d="M134.737 959.999c-74.401 0-134.737-60.335-134.737-134.737v-350.315c0-74.401 60.335-134.737 134.737-134.737h161.684v80.842h-148.21c-37.214 0-67.368 30.154-67.368 67.368v256h511.999v-134.737h80.842v215.579c0 74.401-60.335 134.737-134.737 134.737h-404.21zM188.632 663.579c-14.875 0-26.947-12.072-26.947-26.947v-80.842c0-14.875 12.072-26.947 26.947-26.947h80.842c14.875 0 26.947 12.072 26.947 26.947v80.842c0 14.875-12.072 26.947-26.947 26.947h-80.842zM404.211 663.579c-14.875 0-26.947-12.072-26.947-26.947v-61c30.585 21.397 67.719 34.052 107.789 34.052h26.947v26.947c0 14.875-12.072 26.947-26.947 26.947h-80.842zM485.053 555.789c-74.401 0-134.737-60.335-134.737-134.737v-350.315c0-74.401 60.335-134.737 134.737-134.737h404.21c74.401 0 134.737 60.335 134.737 134.737v350.315c0 74.401-60.335 134.737-134.737 134.737h-404.21zM498.526 474.947h377.263c37.161 0 67.368-30.235 67.368-67.368v-40.421h-511.999v40.421c0 37.133 30.208 67.368 67.368 67.368zM512 232.421h80.842c14.875 0 26.947-12.072 26.947-26.947v-80.842c0-14.875-12.072-26.947-26.947-26.947h-80.842c-14.875 0-26.947 12.072-26.947 26.947v80.842c0 14.875 12.072 26.947 26.947 26.947zM781.473 232.421h80.842c14.875 0 26.947-12.072 26.947-26.947v-80.842c0-14.875-12.072-26.947-26.947-26.947h-80.842c-14.875 0-26.947 12.072-26.947 26.947v80.842c0 14.875 12.072 26.947 26.947 26.947z" />
<glyph unicode="&#xe909;" glyph-name="language" d="M512 960.049c-282.309 0-512-229.691-512-512 0-83.848 22.085-162.222 57.9-232.1l-55.5-198.699c-12.926-46.168 32.722-91.813 78.9-78.9l198.849 55.5c69.821-35.74 148.080-57.8 231.849-57.8 282.309 0 512 229.691 512 512s-229.691 512-512 512zM512 883.249c240.801 0 435.2-194.399 435.2-435.2s-194.399-435.2-435.2-435.2c-76.841 0-148.721 19.981-211.4 54.9-5.386 3.056-11.831 4.858-18.696 4.858-3.667 0-7.216-0.514-10.574-1.475l0.271 0.066-189.099-52.75 52.8 189c0.9 3.098 1.417 6.658 1.417 10.337 0 6.872-1.805 13.322-4.967 18.904l0.1-0.191c-34.988 62.725-55.050 134.634-55.050 211.55 0 240.801 194.399 435.2 435.2 435.2zM703.4 730.15c-20.951-0.337-37.804-17.4-37.804-38.399 0-0.193 0.001-0.388 0.005-0.58v0.029-121.7c-0.323-1.871-0.508-4.027-0.508-6.224s0.185-4.354 0.54-6.451l-0.031 0.226v-198.65c-0.002-0.162-0.004-0.352-0.004-0.544 0-21.21 17.194-38.404 38.404-38.404s38.404 17.194 38.404 38.404c0 0.191-0.001 0.382-0.004 0.572v-0.029 166.4h38.4c0.162-0.002 0.352-0.004 0.544-0.004 21.21 0 38.404 17.194 38.404 38.404s-17.194 38.404-38.404 38.404c-0.191 0-0.382-0.001-0.572-0.004h-38.371v89.6c0.002 0.164 0.004 0.358 0.004 0.551 0 21.21-17.194 38.404-38.404 38.404-0.211 0-0.421-0.001-0.632-0.005h0.031zM422.4 729.6c-0.162 0.002-0.352 0.004-0.544 0.004-21.21 0-38.404-17.194-38.404-38.404s17.194-38.404 38.404-38.404c0.191 0 0.382 0.001 0.572 0.004h115.171v-25.6c0-32.064-14.454-60.178-37.25-79-8.556-7.097-13.966-17.731-13.966-29.628 0-21.214 17.197-38.412 38.412-38.412 9.32 0 17.866 3.319 24.517 8.84l-0.064-0.052c39.77 32.838 65.15 82.865 65.15 138.249v64c-0.002 21.206-17.194 38.398-38.4 38.4h-153.6zM371.351 601.6c-0.048 0-0.106 0-0.163 0-16.246 0-30.136-10.087-35.747-24.34l-0.090-0.26-128-332.799c-1.624-4.094-2.564-8.837-2.564-13.8 0-21.216 17.198-38.414 38.414-38.414 16.253 0 30.148 10.093 35.76 24.354l0.090 0.26 29.9 77.8h124.5l29.9-77.8c5.702-14.521 19.597-24.614 35.85-24.614 21.216 0 38.414 17.198 38.414 38.414 0 4.963-0.941 9.706-2.654 14.060l0.090-0.26-128 332.799c-5.686 14.471-19.51 24.54-35.693 24.6h-0.007zM371.201 456.2l32.7-85h-65.4l32.7 85z" />
<glyph unicode="&#xe90a;" glyph-name="back" d="M440.098 874.807c-11.521-0.346-21.843-5.21-29.307-12.872l-397.999-397.999c-7.714-7.717-12.485-18.376-12.485-30.149s4.771-22.432 12.485-30.149l397.99-397.99c7.773-8.086 18.681-13.11 30.762-13.11 23.553 0 42.646 19.093 42.646 42.646 0 12.081-5.024 22.989-13.096 30.749l-0.015 0.013-325.199 325.199h835.178c0.18-0.003 0.39-0.004 0.604-0.004 23.553 0 42.646 19.093 42.646 42.646s-19.093 42.646-42.646 42.646c-0.212 0-0.424-0.001-0.636-0.004h-835.146l325.199 325.199c7.957 7.755 12.892 18.577 12.892 30.551 0 23.553-19.093 42.646-42.646 42.646-0.432 0-0.862-0.007-1.291-0.019l0.063 0.001z" />
<glyph unicode="&#xe90b;" d="M874.667 448c0-200.533-162.133-362.667-362.667-362.667s-362.667 162.133-362.667 362.667 162.133 362.667 362.667 362.667 362.667-162.133 362.667-362.667z" />
<glyph unicode="&#xe90c;" d="M448 85.333v117.333c0 6.4 4.267 10.667 10.667 10.667s10.667-4.267 10.667-10.667v-117.333h42.667v138.667c0 6.4 4.267 10.667 10.667 10.667s10.667-4.267 10.667-10.667v-138.667h42.667v117.333c0 6.4 4.267 10.667 10.667 10.667s10.667-4.267 10.667-10.667v-117.333h38.4c4.267 6.4 4.267 12.8 4.267 23.467v83.2c0 46.933-40.533 110.933-91.733 110.933h-53.333c-49.067 0-91.733-66.133-91.733-110.933v-83.2c0-8.533 2.133-17.067 4.267-23.467h40.533zM855.467 396.8c0 0 0 0 0 0s-27.733 8.533-51.2 8.533c0 0-2.133 0-2.133 0-23.467 0-61.867-6.4-61.867-6.4-2.133 0-2.133 0-2.133 2.133s0 2.133 2.133 2.133 42.667 6.4 66.133 6.4c23.467 0 51.2-8.533 53.333-8.533s2.133-2.133 2.133-4.267c-4.267 2.133-4.267 0-6.4 0zM849.067 379.733c0 0 0 0 0 0s-29.867 8.533-55.467 8.533c-19.2 0-64-4.267-66.133-4.267s-2.133 0-2.133 2.133 0 2.133 2.133 2.133 46.933 4.267 66.133 4.267c27.733 0 55.467-8.533 55.467-8.533 2.133 0 2.133-2.133 2.133-4.267 0 2.133 0 0-2.133 0zM166.4 396.8c-2.133 0-2.133 0-2.133 2.133s0 2.133 2.133 4.267c17.067 4.267 51.2 10.667 70.4 10.667 17.067 0 74.667-4.267 76.8-4.267s2.133-2.133 2.133-2.133-2.133-2.133-2.133-2.133c0 0-57.6 4.267-74.667 4.267-23.467-4.267-55.467-8.533-72.533-12.8 0 0 0 0 0 0zM174.933 364.8c0 0-2.133 0-2.133 2.133s0 2.133 0 4.267c2.133 0 29.867 17.067 61.867 21.333 27.733 4.267 85.333-2.133 89.6-2.133 2.133 0 2.133-2.133 2.133-2.133 0-2.133-2.133-2.133-2.133-2.133s0 0 0 0-59.733 6.4-87.467 2.133c-32-6.4-61.867-23.467-61.867-23.467s0 0 0 0z" />
<glyph unicode="&#xe90d;" d="M302.933 458.667c0 93.867 98.133 181.333 219.733 181.333s219.733-85.333 219.733-181.333-70.4-160-219.733-160-219.733 66.133-219.733 160z" />
<glyph unicode="&#xe90e;" d="M610.133 612.267c0 0 36.267 49.067 102.4 49.067 25.6-25.6 8.533-102.4 0-123.733l-102.4 74.667zM435.2 612.267c0 0-36.267 49.067-102.4 49.067-25.6-25.6-8.533-102.4 0-123.733l102.4 74.667zM428.8 194.133c0 0-49.067 0-59.733 0-25.6 0-49.067 10.667-59.733 32-12.8 23.467-23.467 49.067-55.467 70.4-6.4 4.267-2.133 8.533 8.533 8.533 10.667-2.133 29.867-4.267 44.8-23.467s32-42.667 59.733-42.667c27.733 0 57.6 0 74.667 19.2l-12.8-64z" />
<glyph unicode="&#xe90f;" d="M512 874.667c-234.667 0-426.667-192-426.667-426.667s192-426.667 426.667-426.667 426.667 192 426.667 426.667-192 426.667-426.667 426.667zM512 106.667c-187.733 0-341.333 153.6-341.333 341.333s153.6 341.333 341.333 341.333 341.333-153.6 341.333-341.333-153.6-341.333-341.333-341.333z" />
<glyph unicode="&#xe910;" d="M896 170.667c0-58.923-47.744-106.667-106.667-106.667h-554.667c-58.901 0-106.667 47.744-106.667 106.667v554.667c0 58.923 47.765 106.667 106.667 106.667h554.667c58.923 0 106.667-47.744 106.667-106.667v-554.667z" />
<glyph unicode="&#xe911;" d="M256 554.667h106.667v-362.667h-106.667zM309.013 597.333h-0.597c-31.829 0-52.416 23.723-52.416 53.355 0 30.272 21.227 53.312 53.632 53.312 32.448 0 52.437-23.040 53.035-53.312 0-29.611-20.587-53.355-53.653-53.355zM768 192h-106.667v194.112c0 46.891-26.133 78.891-68.096 78.891-32.021 0-49.344-21.589-57.749-42.453-3.072-7.467-2.155-28.117-2.155-38.549v-192h-106.667v362.667h106.667v-55.808c15.381 23.808 39.467 55.808 101.077 55.808 76.331 0 133.568-48 133.568-155.179l0.021-207.488z" />
<glyph unicode="&#xe912;" d="M310.165 832h45.333l29.227-117.248h2.837l27.904 117.184h45.803l-52.437-171.435v-127.168h-45.056v121.664l-53.611 177.003zM459.2 705.643c0 16.725 5.419 30.101 16.192 39.979 10.752 9.941 25.216 14.933 43.413 14.933 16.597 0 30.144-5.227 40.704-15.723 10.56-10.411 15.851-23.915 15.851-40.405v-111.68c0-18.475-5.163-33.024-15.531-43.605-10.368-10.539-24.576-15.808-42.816-15.808-17.557 0-31.509 5.525-42.112 16.363-10.517 10.837-15.744 25.472-15.744 43.84v112.128h0.043zM500.373 589.483c0-5.867 1.408-10.539 4.373-13.781 2.816-3.2 6.869-4.821 12.181-4.821 5.44 0 9.685 1.643 12.885 4.992 3.179 3.221 4.821 7.808 4.821 13.611v117.803c0 4.693-1.685 8.512-4.928 11.435-3.221 2.88-7.509 4.373-12.779 4.373-4.885 0-8.896-1.493-11.968-4.373-3.051-2.923-4.587-6.741-4.587-11.435v-117.803zM723.584 755.093v-221.76h-40v27.008c-7.381-8.832-15.040-15.531-23.061-20.075-7.936-4.587-15.68-6.933-23.168-6.933-9.28 0-16.213 3.179-20.928 9.643-4.715 6.4-7.019 16.021-7.019 28.949v183.168h39.979v-168.235c0-5.035 0.853-8.747 2.56-11.072 1.6-2.219 4.416-3.456 8.107-3.456 3.008 0 6.72 1.515 11.136 4.587 4.544 3.008 8.661 6.912 12.395 11.605v166.571h40z" />
<glyph unicode="&#xe913;" d="M827.712 395.968c0 49.963-41.387 90.453-92.352 90.453-72.789 3.051-147.307 4.331-223.36 4.224-76.011 0.107-150.528-1.195-223.36-4.224-50.923 0-92.309-40.491-92.309-90.453-3.029-39.509-4.437-79.061-4.331-118.656-0.107-39.531 1.28-79.083 4.352-118.635 0-50.027 41.344-90.517 92.288-90.517 72.832-2.987 147.349-4.267 223.36-4.16 76.032-0.171 150.571 1.195 223.36 4.16 50.965 0 92.352 40.491 92.352 90.517 3.029 39.552 4.459 79.104 4.288 118.635 0.171 39.595-1.259 79.147-4.288 118.656z" />
<glyph unicode="&#xe914;" d="M722.155 312.619c-4.672 0-7.851-1.237-9.771-3.84-1.365-1.941-3.093-6.379-3.093-16.043v-16.512h25.451v16.512c0 9.515-1.771 13.973-3.221 16.149-1.813 2.539-4.885 3.733-9.365 3.733zM573.12 311.765c-1.835-0.896-3.627-2.24-5.504-4.117v-125.355c2.347-2.368 4.629-4.075 6.741-5.163 2.368-1.173 4.779-1.707 7.381-1.707 4.928 0 6.464 1.941 6.955 2.624 1.216 1.515 2.539 4.672 2.539 11.52v106.773c0 5.931-1.131 10.517-3.243 13.333-2.859 3.797-8.491 5.291-14.869 2.091z" />
<glyph unicode="&#xe915;" d="M827.712 395.968c0 49.963-41.387 90.453-92.352 90.453-72.789 3.051-147.307 4.331-223.36 4.224-76.011 0.107-150.528-1.195-223.36-4.224-50.923 0-92.309-40.491-92.309-90.453-3.029-39.509-4.437-79.061-4.331-118.656-0.107-39.531 1.28-79.083 4.352-118.635 0-50.027 41.344-90.517 92.288-90.517 72.832-2.987 147.349-4.267 223.36-4.16 76.032-0.171 150.571 1.195 223.36 4.16 50.965 0 92.352 40.491 92.352 90.517 3.029 39.552 4.459 79.104 4.288 118.635 0.171 39.595-1.259 79.147-4.288 118.656zM334.955 141.184c0-2.368-1.963-4.352-4.395-4.352h-43.712c-2.432 0-4.395 1.984-4.395 4.352v235.307h-40.832c-2.411 0-4.373 1.963-4.373 4.331v40.619c0 2.389 1.963 4.352 4.373 4.352h134.208c2.432 0 4.395-1.963 4.395-4.352v-40.619c0-2.368-1.941-4.331-4.395-4.331h-40.875v-235.307zM490.56 141.184c0-2.368-1.963-4.352-4.395-4.352h-38.869c-2.432 0-4.395 1.984-4.395 4.352v11.755c-5.184-4.971-10.368-8.917-15.744-11.947-8.469-4.843-16.555-7.168-24.747-7.168-10.411 0-18.432 3.755-23.829 11.029-5.077 6.912-7.701 17.131-7.701 30.315v172.8c0 2.389 1.963 4.352 4.416 4.352h38.848c2.432 0 4.395-1.963 4.395-4.352v-158.464c0-5.205 0.939-7.317 1.536-8.149 0.277-0.363 1.067-1.429 4.373-1.429 1.109 0 3.669 0.469 8.299 3.605 3.755 2.453 7.125 5.525 10.091 9.067v155.371c0 2.389 1.963 4.352 4.416 4.352h38.848c2.432 0 4.395-1.963 4.395-4.352v-206.763h0.064zM640 184.043c0-15.701-3.392-27.947-10.091-36.437-6.955-8.917-17.003-13.355-29.824-13.355-8.171 0-15.637 1.643-22.315 4.971-3.541 1.771-6.976 4.075-10.219 6.933v-4.971c0-2.432-1.984-4.352-4.395-4.352h-39.189c-2.432 0-4.416 1.92-4.416 4.352v280.32c0 2.389 1.963 4.331 4.416 4.331h39.189c2.411 0 4.395-1.941 4.395-4.331v-79.296c3.2 2.901 6.613 5.333 10.112 7.317 6.592 3.627 13.333 5.461 20.075 5.461 13.675 0 24.384-5.077 31.659-15.061 6.997-9.6 10.56-23.488 10.56-41.237l0.043-114.645zM783.552 239.68c0-2.411-1.984-4.373-4.416-4.373h-69.824v-34.581c0-12.629 1.749-18.027 3.157-20.288 1.131-1.877 3.243-4.245 9.344-4.245 4.907 0 8.277 1.173 10.005 3.499 0.789 1.237 2.965 5.973 2.965 21.077v14.4c0 2.432 1.984 4.352 4.416 4.352h39.936c2.432 0 4.373-1.92 4.373-4.352v-15.552c0-22.272-5.312-39.339-15.723-50.859-10.453-11.584-26.24-17.493-46.891-17.493-18.603 0-33.579 6.315-44.352 18.581-10.667 12.181-16.107 28.885-16.107 49.771v92.843c0 19.029 5.931 34.773 17.707 46.848 11.733 12.117 27.179 18.283 45.739 18.283 18.987 0 33.856-5.781 44.203-17.131 10.24-11.221 15.445-27.392 15.445-48.021v-52.779h0.021z" />
<glyph unicode="&#xe916;" d="M512 853.333c-223.859 0-405.333-181.474-405.333-405.333s181.474-405.333 405.333-405.333v0c223.859 0 405.333 181.474 405.333 405.333s-181.474 405.333-405.333 405.333v0z" />
<glyph unicode="&#xe917;" d="M566.869 340.565h104.896l16.469 106.56h-121.387v58.24c0 44.267 14.464 83.52 55.872 83.52h66.539v92.992c-11.691 1.579-36.416 5.035-83.136 5.035-97.557 0-154.752-51.52-154.752-168.896v-70.891h-100.288v-106.56h100.288v-292.885c19.861-2.987 39.979-5.013 60.629-5.013 18.667 0 36.885 1.707 54.869 4.139v293.76z" />
<glyph unicode="&#xe918;" glyph-name="twitter" d="M896 694.848c-28.224-12.501-58.581-20.843-90.603-24.789 32.555 19.328 57.6 50.155 69.355 86.571-30.464-17.856-64.213-30.976-100.117-37.888-28.672 30.4-69.568 49.259-114.88 49.259-87.040 0-157.589-69.931-157.589-156.16 0-12.203 1.429-24.085 4.117-35.627-130.944 6.571-247.083 68.821-324.779 163.285-13.653-23.083-21.333-50.112-21.333-78.635 0-54.208 27.755-101.931 70.080-130.048-25.835 0.789-50.155 7.979-71.445 19.499 0-0.469 0-1.173 0-1.835 0-75.755 54.336-138.837 126.357-153.195-13.163-3.605-27.072-5.611-41.408-5.611-10.176 0-20.096 1.152-29.696 2.88 20.053-61.909 78.229-107.157 147.157-108.501-53.931-41.813-121.856-66.859-195.712-66.859-12.757 0-25.237 0.725-37.568 2.219 69.781-44.181 152.64-70.080 241.579-70.080 289.813 0 448.363 237.995 448.363 444.459 0 6.763-0.213 13.504-0.533 20.16 30.933 21.845 57.6 49.408 78.656 80.896z" />
<glyph unicode="&#xe919;" glyph-name="email" d="M512 959.999c-282.309 0-511.999-229.69-511.999-511.999s229.69-511.999 511.999-511.999c63.192 0 123.903 11.48 179.9 32.5 14.897 5.509 25.325 19.591 25.325 36.108 0 21.21-17.194 38.404-38.404 38.404-5.009 0-9.793-0.959-14.18-2.702l0.259 0.091c-47.531-17.842-98.997-27.6-152.9-27.6-240.801 0-435.2 194.398-435.2 435.2s194.398 435.2 435.2 435.2c240.801 0 435.2-194.398 435.2-435.2v-63.999c0-64.089-51.11-115.2-115.2-115.2s-115.2 51.11-115.2 115.2v281.6c0.002 0.162 0.004 0.352 0.004 0.544 0 21.21-17.194 38.404-38.404 38.404s-38.404-17.194-38.404-38.404c0-0.191 0.001-0.382 0.004-0.572v0.029-27.3c-40.46 40.5-93.913 65.7-153.6 65.7-129.482 0-230.4-117.638-230.4-255.999s100.917-255.999 230.4-255.999c73.532 0 137.793 37.972 179.649 96.099 33.329-57.269 95.274-96.099 165.95-96.099 105.587 0 192 86.413 192 192v63.999c0 282.309-229.69 511.999-511.999 511.999zM486.4 627.199c82.28 0 153.6-77.587 153.6-179.199s-71.319-179.199-153.6-179.199c-82.28 0-153.6 77.587-153.6 179.199s71.319 179.199 153.6 179.199z" />
<glyph unicode="&#xe91a;" glyph-name="phone" d="M385.061 959.605c-16.85 1.226-34.115-0.497-51.046-5.499l-60.595-17.948c-64.569-19.096-115.020-70.327-132.088-134.988-37.9-143.801 5.456-314.012 118.289-505.606 112.675-191.329 241.064-312.929 386.066-352.619 65.299-17.872 135.721-0.799 185.183 45.146l46.096 42.746c51.58 47.89 59.27 127.656 17.599 184.334l-66.594 90.442c-35.697 48.487-98.623 69.128-156.487 51.745l-104.19-31.197c-4.374-1.277-14.84 4.68-23.947 12.548l-0.050 0.050c-16.223 14.106-38.699 42.617-62.745 83.393v0.050c-25.783 43.79-36.782 72.429-41.196 89.342-4.417 16.92-3.345 18.979-2.7 24.697 0.336 2.853 1.692 5.498 3.999 7.599l0.050 0.050 77.693 71.043c44.511 40.692 57.949 105.719 32.847 160.436l-46.846 102.191v0.050c-22.055 48.075-68.803 78.316-119.339 81.992zM379.511 883.012c23.504-1.757 45.147-15.854 55.045-37.446l46.895-102.191c11.349-24.738 5.658-53.047-14.849-71.793l-77.693-70.994c-15.927-14.522-26.112-34.322-28.548-55.696v-0.050c-0.635-5.62-2.133-26.521 4.7-52.696s20.941-60.793 49.295-108.941h0.050c26.458-44.874 51.462-78.964 78.543-102.491h0.050c8.794-7.613 45.652-42.939 95.791-28.297l0.15 0.050 104.64 31.347c27.173 8.163 56.226-1.584 72.543-23.748l66.594-90.442c18.858-25.692 15.564-60.615-8-82.493l-46.096-42.797c-29.48-27.396-73.257-38.091-112.691-27.298-117.221 32.086-233.218 135.944-340.12 317.472-107.051 181.776-140.533 332.12-110.24 447.060 10.013 37.935 40.694 69.424 79.643 80.942l60.544 17.948c7.887 2.33 15.913 3.135 23.748 2.55z" />
<glyph unicode="&#xe91b;" glyph-name="map" d="M512 960.145c-239.958 0-435.323-195.363-435.323-435.323 0-107.724 39.52-206.518 104.429-282.479 0.154-0.179 0.269-0.31 0.384-0.438l-0.034 0.038c0 0 185.189-211.315 251.12-274.227 44.15-42.093 114.644-42.093 158.795 0 75.152 71.679 251.221 274.328 251.221 274.328 0.036 0.041 0.118 0.138 0.199 0.236l0.052 0.064c64.968 75.966 104.48 174.755 104.48 282.479 0 239.958-195.363 435.323-435.323 435.323zM512 883.323c198.436 0 358.501-160.064 358.501-358.501 0-88.991-32.431-169.842-86.074-232.565-0.349-0.4-180.496-206.432-246.069-268.975-15.207-14.499-37.557-14.499-52.764 0-54.804 52.295-245.514 268.345-246.069 268.975l-0.050 0.050c-53.572 62.719-85.974 143.55-85.974 232.515 0 198.436 160.064 358.501 358.501 358.501zM512 729.68c-15.595 0-29.645-9.439-35.56-23.857l-115.232-281.68c-8.041-19.641 1.365-42.049 21.006-50.064 19.641-8.091 42.099 1.34 50.114 21.006l11.154 27.308h137.039l11.154-27.308c6.094-14.878 20.477-23.907 35.61-23.907 4.84 0 9.741 0.905 14.504 2.851 19.615 8.015 29.047 30.473 21.006 50.114l-115.232 281.68c-5.89 14.442-19.965 23.857-35.56 23.857zM512 589.84l37.060-90.626h-74.121l37.060 90.626z" />
<glyph unicode="&#xe91c;" d="M256 277.333v512h576v-384l-128-128h-192l-128-128v128z" />
<glyph unicode="&#xe91d;" d="M192 853.333l-64-151.957v-552.043h192v-106.667h106.667l106.667 106.667h149.333l213.333 213.333v490.667h-704zM810.667 405.333l-106.667-106.667h-192l-106.667-106.667v106.667h-128v469.333h533.333v-362.667z" />
<glyph unicode="&#xe91e;" d="M682.667 426.667h-106.667v213.333h106.667v-213.333zM512 426.667h-106.667v213.333h106.667v-213.333z" />
<glyph unicode="&#xe91f;" glyph-name="darktheme" d="M537.6 959.999c-282.309 0-511.999-229.69-511.999-511.999s229.69-511.999 511.999-511.999c198.809 0 371.269 113.871 455.948 279.8 2.646 5.077 4.199 11.088 4.199 17.461 0 19.782-14.956 36.069-34.177 38.174l-0.172 0.016c-225.015 23.869-400.199 213.64-400.199 445.349 0 66.861 14.992 129.938 41.349 187.1 2.23 4.718 3.532 10.25 3.532 16.086 0 20.287-15.731 36.9-35.659 38.307l-0.122 0.007c-10.218 0.688-21.754 1.7-34.7 1.7zM516.15 881.049c-17.43-51.978-29.75-106.35-29.75-164.249 0-249.226 175.143-456.325 408.599-509.548-78.102-115.809-206.919-194.45-357.398-194.45-240.801 0-435.199 194.398-435.199 435.199 0 233.451 183.177 421.677 413.749 433.049z" />
<glyph unicode="&#xe920;" glyph-name="lighttheme" d="M511.401 959.999c-20.928-0.337-37.763-17.381-37.763-38.358 0-0.193 0.001-0.387 0.005-0.579v0.029-76.718c-0.002-0.162-0.004-0.351-0.004-0.543 0-21.187 17.175-38.362 38.362-38.362s38.362 17.175 38.362 38.362c0 0.191-0.001 0.381-0.004 0.572v-0.029 76.718c0.002 0.163 0.004 0.357 0.004 0.55 0 21.187-17.175 38.362-38.362 38.362-0.211 0-0.421-0.001-0.631-0.005h0.031zM177.060 821.249c-21.184-0.005-38.353-17.179-38.353-38.362 0-10.788 4.453-20.538 11.623-27.508l54.25-54.25c6.948-6.948 16.545-11.244 27.146-11.244 21.202 0 38.39 17.188 38.39 38.39 0 10.601-4.297 20.198-11.244 27.146l-54.242 54.242c-6.975 7.152-16.706 11.588-27.473 11.588-0.034 0-0.068 0-0.102 0h0.005zM845.742 821.249c-10.364-0.312-19.649-4.687-26.363-11.58l-54.25-54.25c-6.948-6.948-11.244-16.545-11.244-27.146 0-21.202 17.188-38.39 38.39-38.39 10.601 0 20.198 4.297 27.146 11.244l54.242 54.242c7.19 6.98 11.651 16.738 11.651 27.536 0 21.187-17.175 38.362-38.362 38.362-0.426 0-0.849-0.007-1.271-0.020l0.061 0.001zM512 729.298c-154.902 0-281.298-126.396-281.298-281.298s126.396-281.298 281.298-281.298c154.902 0 281.298 126.396 281.298 281.298s-126.396 281.298-281.298 281.298zM512 652.58c113.441 0 204.58-91.139 204.58-204.58s-91.139-204.58-204.58-204.58c-113.441 0-204.58 91.139-204.58 204.58s91.139 204.58 204.58 204.58zM38.908 486.359c-0.162 0.002-0.351 0.004-0.543 0.004-21.187 0-38.362-17.175-38.362-38.362s17.175-38.362 38.362-38.362c0.191 0 0.381 0.001 0.572 0.004h76.689c0.162-0.002 0.351-0.004 0.543-0.004 21.187 0 38.362 17.175 38.362 38.362s-17.175 38.362-38.362 38.362c-0.191 0-0.381-0.001-0.572-0.004h-76.689zM908.374 486.359c-0.162 0.002-0.351 0.004-0.543 0.004-21.187 0-38.362-17.175-38.362-38.362s17.175-38.362 38.362-38.362c0.191 0 0.381 0.001 0.572 0.004h76.689c0.162-0.002 0.351-0.004 0.543-0.004 21.187 0 38.362 17.175 38.362 38.362s-17.175 38.362-38.362 38.362c-0.191 0-0.381-0.001-0.572-0.004h-76.689zM230.953 206.46c-10.364-0.312-19.649-4.687-26.363-11.58l-54.25-54.25c-6.95-6.948-11.25-16.548-11.25-27.152 0-21.202 17.188-38.39 38.39-38.39 10.604 0 20.204 4.3 27.152 11.25l54.242 54.242c7.19 6.98 11.651 16.738 11.651 27.536 0 21.187-17.175 38.362-38.362 38.362-0.426 0-0.849-0.007-1.271-0.020l0.061 0.001zM791.849 206.46c-21.184-0.005-38.353-17.179-38.353-38.362 0-10.788 4.453-20.538 11.623-27.508l54.25-54.25c6.948-6.948 16.545-11.244 27.146-11.244 21.202 0 38.39 17.188 38.39 38.39 0 10.601-4.297 20.198-11.244 27.146v0l-54.242 54.242c-6.975 7.152-16.706 11.588-27.473 11.588-0.034 0-0.068 0-0.102 0h0.005zM511.401 90.535c-20.928-0.337-37.763-17.381-37.763-38.358 0-0.193 0.001-0.387 0.005-0.579v0.029-76.718c-0.002-0.162-0.004-0.351-0.004-0.543 0-21.187 17.175-38.362 38.362-38.362s38.362 17.175 38.362 38.362c0 0.191-0.001 0.381-0.004 0.572v-0.029 76.718c0.002 0.164 0.004 0.357 0.004 0.55 0 21.187-17.175 38.362-38.362 38.362-0.211 0-0.421-0.001-0.632-0.005h0.031z" />
</font>
</defs>
</svg>
